<?xml version="1.0" encoding="UTF-8"?>
<svg id="Capa_1" xmlns="http://www.w3.org/2000/svg" version="1.1" xmlns:xlink="http://www.w3.org/1999/xlink" viewBox="0 0 728.2 134.5">
  <!-- Generator: Adobe Illustrator 29.2.1, SVG Export Plug-In . SVG Version: 2.1.0 Build 116)  -->
  <defs>
    <style>
      .st0 {
        fill: #fff;
      }

      .st1 {
        fill: #8cc63c;
      }
    </style>
  </defs>
  <g>
    <path class="st1" d="M52.6,50.4l-1.9-.4c-1.8-3.1-4.3-5.5-8.1-7.5l-.7-1.1V2.4l1.1-1.1,8.6-1.3,1.1.4c6.4,7.3,12.6,12.1,19.5,15l.6.6,5.7,12.2-.3,1.5-25.6,20.7ZM44.4,40.7c3.3,1.9,5.9,4.1,7.7,6.9l23.8-19.1-5.1-10.9c-6.9-3-13.1-7.8-19.5-15l-6.9,1v37.1Z"/>
    <path class="st1" d="M39.8,42.6l-1.7-1.1-.7-39,1.3-1.3h4.5l1.2,1.2v38l-1.2,1.2c-1.2.2-2.3.5-3.4,1ZM39.9,3.7l.6,36c.5,0,.9-.2,1.4-.3V3.7h-2Z"/>
    <path class="st1" d="M27.1,59.8l-19-19.1-.3-1.3,2.2-7.1,2.1-.5,15,14.8,5.3-.5,1.2,1.9c-2,3-3.5,6.8-4.3,11.1l-2.2.7ZM10.4,39.4l16.8,17c.7-2.8,1.6-5.3,2.9-7.6l-3.4.3-1-.4-13.9-13.7-1.4,4.4Z"/>
    <path class="st1" d="M25.7,48.8L6.6,30l-.3-1.3,3.9-10.2.5-.6c5.3-3.4,9.9-8.2,13.8-14.2l.8-.5,8.3-2,1.5,1.2.4,38.7-.8,1.2c-3.3,1.4-5.6,3.4-7,6.2l-2,.3ZM8.9,28.8l3.1,3,14.3,14.1c1.6-2.4,3.8-4.3,6.6-5.6l-.3-36.3-6.3,1.5c-3.9,5.9-8.6,10.7-13.9,14.3l-3.5,9Z"/>
    <path class="st1" d="M5.7,87.1l-2-.6-3.1-10.3v-.5c.8-9.7.7-18.1-.6-25.8v-.6l3-9.9,2.1-.5,18.5,18.9.3,1c-.5,4.3-.5,8.7.1,13.2l-.5,1.2-17.8,13.9ZM3,75.7l2.6,8.3,15.9-12.4c-.5-4.2-.5-8.4-.1-12.5L4.8,42.1l-2.3,7.6c1.2,7.8,1.4,16.3.5,26Z"/>
    <path class="st1" d="M13.5,95.1l-1.9-.6-2.9-8.7.3-1.4,18-13.7,2,.8c.6,4,1.9,7.8,3.8,10.9l-.8,1.8-4.8,1-13.7,9.9ZM11.3,85.8l2.1,6.2,12.5-9,.5-.2,3.4-.7c-1.3-2.5-2.3-5.3-2.9-8.2l-15.6,11.9Z"/>
    <path class="st1" d="M34.5,129.5l-7.3-2.8-.6-.5c-4.9-7.9-9.8-13.9-14.6-17.6l-.4-.5-4.2-10.3.4-1.4,4.1-3.3,14-10.1,1.8.4c2.4,3.9,4.7,6.3,7.3,7.5l.7,1.1.5,36.4-1.7,1.1ZM28.5,124.6l5.2,2-.4-33.8c-2.5-1.4-4.7-3.6-6.9-7l-12.9,9.3-3.4,2.7,3.7,9.2c4.9,3.8,9.8,9.7,14.7,17.6Z"/>
    <path class="st1" d="M43,129.2l-3.6-1.1-.9-1.2-.5-36.7,1.8-1.1c2.9,1.4,6.2,1.5,9.2.3l1.3,2.1c-1.8,1.6-3.7,2.7-5.7,3.3v33.2l-1.6,1.2ZM41,126l1.1.3v-32.6l.9-1.1c-.8,0-1.7-.3-2.5-.6l.5,34Z"/>
    <path class="st1" d="M80.8,113.5l-24.5-24.6-2.5.3-1-2.2c2.2-1.9,4.1-4.5,5.5-7.6l2-.4,22.3,21.6,4.5-.9,1.4,1.8-5.6,11.7-2.1.3ZM56.9,86.4l.8.3,23.7,23.8,3.8-7.8-2.6.6-1.1-.3-21.7-21c-.9,1.6-1.9,3.1-2.9,4.4Z"/>
    <path class="st1" d="M62,59.7l-2-.7c-.8-3.4-2.2-6.7-4.1-9.4l.3-1.7,25.2-19.7,1.9.5,6,13.4-1.1,1.8-4.9.3-21.3,15.5ZM58.7,49.1c1.4,2.3,2.5,4.8,3.3,7.5l20.1-14.7.7-.2,3.5-.2-4.6-10.3-23,17.9Z"/>
    <path class="st1" d="M52.8,134.5l-1.3-2c4.7-5.3,10.8-8.6,18.6-10l5.4-9.4.8-.6,4.6-1,4.3-8.9-2.6.6-1.4-1.8,4.9-9.5.6-2.3c-1.7-9.4-1.6-20.1.4-32.8l-.5-2.6-4.7-10.7,1.1-1.7,3.5-.2-4.9-11.1-4-.3-1.1-.7-5.5-11.8c-7.1-3.1-13.4-8-19.9-15.5l1-2.1,19.5,1.5.8.4c6.5,6.6,12.6,11,19.6,14.1l.6.6,15.9,34.7v.2c0,0,.8,3.1.8,3.1v.5c-1.7,8.2-1.9,17.9-.6,30.6v.3l-.6,3.1v.4c0,0-16.2,29.4-16.2,29.4l-.9.6c-7.3,1.4-13.2,4.4-17.8,8.8l-.5.3-19.9,5.8ZM77.3,114.8l-5.4,9.4-.9.6c-5.5,1-10.2,2.9-14,5.9l14.7-4.3c4.7-4.5,10.9-7.6,18.2-9.1l15.7-28.6.5-2.7c-1.3-12.7-1.1-22.5.6-30.9l-.6-2.7-15.5-34.2c-7-3.2-13.2-7.6-19.9-14.2l-15.9-1.3c5.7,6,11.2,10.1,17.4,12.7l.6.6,5.4,11.6,4,.3,1.1.7,6,13.4-1.1,1.8-3.4.2,4.1,9.5.6,3v.4c-2,12.6-2.1,23.2-.4,32.4v.5l-.8,3-3.8,7.3,2.5-.5,1.4,1.8-5.6,11.7-.9.7-4.6,1Z"/>
    <path class="st1" d="M26.7,49.1l-1.2-1.8c1.6-3.1,4.1-5.4,7.5-7l-.4-37.9,1.3-1.3h4.8l1.2,1.2.7,39-.8,1.2c-2.3,1-4.5,2.9-6.3,5.5l-.9.5-5.9.6ZM35.1,3.7l.4,37.4-.8,1.2c-2.4,1-4.3,2.4-5.7,4.2l2.7-.3c1.8-2.5,3.9-4.4,6.3-5.5l-.6-37h-2.3Z"/>
    <path class="st1" d="M5.1,87.3l-.9-2.2,17.3-13.5c-.5-4.2-.5-8.4-.1-12.5L3.3,40.6l.9-2.1h4.8l.9.4,19,19.1.3,1.1c-.4,2.3-.6,4.7-.6,7.1s.1,3.5.4,5.2l-.5,1.2-17.9,13.8-.6.2-4.9.7ZM7.2,41l16.4,16.8.3,1c-.5,4.3-.5,8.7.1,13.2l-.5,1.2-8.5,6.7,11.4-8.8c-.2-1.6-.3-3.2-.3-4.9s.2-4.7.6-6.9l-18.2-18.3h-1.3Z"/>
    <path class="st1" d="M35.3,129.6l-1.6-1.2-.5-35.6c-2.7-1.5-5.2-4.1-7.6-8.1l.8-1.9,5.1-1,1.3.6c1.9,3.1,4.4,5.5,7.1,6.8l.7,1.1.5,36.7-.9,1.2-4.9,1.4ZM28.7,84.9c2,3,4.1,5,6.3,6l.7,1.1.5,34.7,2.4-.7-.5-35c-2.6-1.4-5-3.7-6.9-6.6l-2.5.5Z"/>
    <path class="st1" d="M52.4,134.5h-2.4c0-.1-6.9-2.4-6.9-2.4l-.9-1.1v-3c0,0,0-34.3,0-34.3l1-1.2c1.9-.3,3.7-1.3,5.4-2.9.7-.6,1.3-1.4,2-2.2h1.9c0,0,24.9,25.4,24.9,25.4l.2,1.5-5.7,9.9-.9.6c-7.5,1.3-13.3,4.4-17.7,9.4l-.8.3ZM50.6,132h1.2c4.7-5,10.6-8.2,18.2-9.6l4.9-8.5-23.2-23.8c-.4.5-.9,1-1.3,1.4-1.8,1.6-3.7,2.7-5.7,3.3v35.3c0,0,5.9,1.9,5.9,1.9Z"/>
    <path class="st1" d="M81.3,102.9l-25.5-24.7-.4-1.1c.3-2.1.4-4.2.4-6.2s-.2-5.7-.7-8.5l.5-1.2,26.5-19.4,1.9.5,4.8,11.1.6,3v.4c-2,12.6-2.1,23.2-.4,32.4v.5l-.8,3-5,9.7-1.9.5ZM58,76.8l23.9,23.1,4.2-8.1.6-2.3c-1.7-9.4-1.6-20.1.4-32.8l-.5-2.6-4.1-9.3-24.6,18c.4,2.7.6,5.4.6,8.2,0,1.9-.3,3.8-.5,5.8Z"/>
    <path class="st1" d="M76.8,114.9l-1.2-.3-24.9-25.5.7-2.1,5.2-.6,1,.4,24.9,25-.6,2.1-5.1,1ZM54.3,89.1l22.7,23.2,2.2-.5-22.9-23-2,.3Z"/>
    <path class="st1" d="M51.9,50.7l-.9-2.2,25.6-20.6.9-.3,4.8.3.7,2.2-25.2,19.7-.7.3-5.2.6ZM77.8,30.1l-21.9,17.6h.6c0,0,22.3-17.6,22.3-17.6h-1Z"/>
    <path class="st1" d="M28,60.2c-.4,0-.7-.2-1-.4h0c-.4-.5-.4-1.3.2-1.8.5-.4,1.3-.4,1.8.2.4.5.4,1.3-.2,1.8-.3,0-.5.2-.8.2Z"/>
    <path class="st1" d="M44.6,81.2c-2.7,0-5.3-1.4-7.4-3.9-2.2-2.6-3.6-6.2-4-10.2-.8-8.3,3.4-15.5,9.3-16.1,3-.3,5.9,1.1,8.2,3.8,2.2,2.6,3.6,6.2,4,10.2.4,3.9-.3,7.8-2,10.8-1.7,3.2-4.3,5-7.3,5.3-.3,0-.6,0-.8,0ZM43.2,53.6h-.5c-4.5.4-7.7,6.4-7,13.4.3,3.4,1.5,6.6,3.4,8.8,1.8,2.1,3.9,3.2,6,3s4-1.6,5.3-4c1.4-2.6,2-5.9,1.7-9.3h0c-.3-3.4-1.5-6.6-3.4-8.8-1.6-2.1-3.5-3.1-5.5-3.1Z"/>
    <path class="st1" d="M57.1,27.3c-3.1,0-5.5-3.1-5.5-7.1s2.4-7.1,5.5-7.1,5.5,3.1,5.5,7.1c0,4-2.5,7.1-5.5,7.1ZM57.1,15.6c-1.6,0-3,2.1-3,4.6s1.4,4.6,3,4.6,3-2.1,3-4.6c0-2.5-1.4-4.6-3-4.6Z"/>
    <path class="st1" d="M77.4,78.7c-3.1,0-5.5-3.1-5.5-7.1s2.4-7.1,5.5-7.1,5.5,3.1,5.5,7.1-2.4,7.1-5.5,7.1ZM77.4,67.1c-1.6,0-3,2.1-3,4.6s1.4,4.6,3,4.6,3-2.1,3-4.6-1.4-4.6-3-4.6Z"/>
    <path class="st1" d="M57.1,123.7c-3.1,0-5.5-3.1-5.5-7.1s2.4-7.1,5.5-7.1,5.5,3.1,5.5,7.1c0,4-2.5,7.1-5.5,7.1ZM57.1,112c-1.6,0-3,2.1-3,4.6s1.4,4.6,3,4.6,3-2.1,3-4.6c0-2.5-1.4-4.6-3-4.6Z"/>
    <path class="st1" d="M23.1,114.5c-3.1,0-5.5-3.1-5.5-7.1s2.4-7.1,5.5-7.1,5.5,3.1,5.5,7.1-2.4,7.1-5.5,7.1ZM23.1,102.8c-1.6,0-3,2.1-3,4.6s1.4,4.6,3,4.6,3-2.1,3-4.6-1.4-4.6-3-4.6Z"/>
    <path class="st1" d="M8.2,70c-3.1,0-5.5-3.1-5.5-7.1s2.4-7.1,5.5-7.1,5.5,3.1,5.5,7.1-2.4,7.1-5.5,7.1ZM8.2,58.4c-1.6,0-3,2.1-3,4.6s1.4,4.6,3,4.6,3-2.1,3-4.6-1.4-4.6-3-4.6Z"/>
    <path class="st1" d="M22,27.8c-3.1,0-5.5-3.1-5.5-7.1s2.4-7.1,5.5-7.1,5.5,3.1,5.5,7.1-2.4,7.1-5.5,7.1ZM22,16.1c-1.6,0-3,2.1-3,4.6s1.4,4.6,3,4.6,3-2.1,3-4.6-1.4-4.6-3-4.6Z"/>
  </g>
  <g>
    <path class="st0" d="M202.2,87.1V4.9h18.3l30.5,51.6h.1c0,0,30.6-51.5,30.6-51.5h18.3v82.2h-18.9v-50.7l-29.5,48.3h-1.3l-29.4-48.3v50.6s-18.7,0-18.7,0Z"/>
    <path class="st0" d="M554.1,72.5l49.4-51.5h-44.4l-3.6-3.5V4.9h71.9v14.7l-49.4,51.6h49.4v12.3l-3.6,3.6h-69.6v-14.6h-.1Z"/>
    <polygon class="st0" points="177.6 87.1 191.1 73.6 191.1 52.3 177.6 38.8 136.1 38.8 136.1 20.8 185.1 20.9 188.8 17.4 188.8 4.9 130.8 4.9 117.3 18.4 117.3 39.8 130.8 53.3 172.3 53.1 172.3 71.3 120.9 71.2 117.3 74.7 117.3 87.1 177.6 87.1"/>
    <path class="st0" d="M385,4.9h52.1l13.5,13.5v55.2l-13.5,13.5h-46.7l-18.9-16V18.4l13.5-13.5ZM431.7,71.2V20.9h-41.3v50.3h41.3Z"/>
    <path class="st0" d="M522.6,20.9v27.4h-41.3v-27.4h41.3ZM462.4,4.9v82.2h18.9v-24.3h26.1l16.5,24.3h20l-15.5-24.3,13.2-13.2v-31.2l-13.6-13.5h-65.6Z"/>
    <g>
      <path class="st0" d="M130.7,102.8c-.3-.6-.8-1.3-1.4-1.8-.5-.3-1.3-.8-2.6-.8-2.3,0-3.9,1.4-3.9,3.6s.2,1.4.9,2c.7.7,1.6,1.1,2.5,1.5l2.2,1c1.4.6,2.6,1.2,3.6,2.2s1.7,2.6,1.7,4.2c0,4.3-3.2,7.2-7.4,7.2s-3.5-.3-5.1-1.9c-1.2-1.1-1.9-2.7-2.2-4.1l2.5-.7c.2,1.2.7,2.3,1.4,3,1,1,2.2,1.3,3.4,1.3,3.2,0,4.7-2.3,4.7-4.6s-.3-2-1.2-2.7c-.7-.6-1.6-1.1-2.8-1.6l-2.1-1c-.9-.4-2.1-.9-3.1-1.9s-1.6-2.1-1.6-3.8c0-3.6,2.8-6,6.6-6s2.6.3,3.8,1.1c.9.6,1.8,1.6,2.3,2.6l-2.2,1.2Z"/>
      <path class="st0" d="M140.3,115.5c0,1,0,2.2.7,3.1.4.5,1.2,1.1,2.6,1.1s2.2-.6,2.6-1.1c.7-.9.7-2.1.7-3.1v-8.5h2.5v8.8c0,1.8-.2,3.1-1.3,4.4-1.3,1.4-3,1.8-4.5,1.8s-3.2-.5-4.5-1.8c-1.2-1.3-1.3-2.6-1.3-4.4v-8.8h2.5v8.5Z"/>
      <path class="st0" d="M154.1,107h2.5v1.5c.8-1.2,2.1-1.9,3.6-1.9,2.6,0,3.7,1.9,4,2.3,1.4-2.2,3.4-2.3,4.4-2.3,4.3,0,4.7,3.6,4.7,5.7v9.2h-2.5v-8.8c0-1.6-.2-3.8-2.6-3.8s-3.2,2.8-3.2,4.6v8.1h-2.5v-8.6c0-1,0-4-2.6-4s-3.2,3-3.2,4.7v7.9h-2.5v-14.6h0Z"/>
      <path class="st0" d="M179.4,99.7c1,0,1.8.8,1.8,1.8s-.8,1.8-1.8,1.8-1.8-.8-1.8-1.8c0-1,.8-1.8,1.8-1.8ZM180.7,107v14.5h-2.5v-14.5h2.5Z"/>
      <path class="st0" d="M185.4,107h2.5v1.7c.5-.6,1.8-2,4.2-2s3.3.7,4.2,2c.7,1.1.8,2.3.8,3.9v9h-2.5v-8.9c0-.9-.1-1.9-.7-2.7-.5-.6-1.3-1.1-2.4-1.1s-1.8.2-2.6,1.1c-1,1.2-1.1,2.9-1.1,3.9v7.6h-2.5v-14.5h.1Z"/>
      <path class="st0" d="M203.2,99.7c1,0,1.8.8,1.8,1.8s-.8,1.8-1.8,1.8-1.8-.8-1.8-1.8.8-1.8,1.8-1.8ZM204.4,107v14.5h-2.5v-14.5h2.5Z"/>
      <path class="st0" d="M215.2,110.4c-.4-.8-1.1-1.5-2-1.5s-1.8.5-1.8,1.6.7,1.4,2.3,2.1c2.1.9,3.1,1.5,3.6,2.2.6.8.8,1.5.8,2.3,0,3-2.2,4.8-5,4.8s-3.9,0-5.1-3.7l2.2-.9c.3.8,1.1,2.4,2.9,2.4s2.4-1.2,2.4-2.3-1-1.8-2.3-2.4c-1.8-.8-2.9-1.3-3.5-2.1-.6-.7-.7-1.4-.7-2.1,0-2.6,1.8-4.1,4.2-4.1s2.8,0,4,2.6l-2,1.1Z"/>
      <path class="st0" d="M224.1,109.3v12.2h-2.5v-12.2h-1.6v-2.3h1.5v-5.3h2.5v5.3h2.5v2.3h-2.4Z"/>
      <path class="st0" d="M229,107h2.5v1.6c.2-.4,1.3-1.9,3.3-1.9s1.6.3,2.2.6l-1.2,2.3c-.6-.4-1.1-.5-1.5-.5-1,0-1.6.4-2,.9-.4.6-.8,1.5-.8,3.9v7.7h-2.5v-14.6Z"/>
      <path class="st0" d="M237.6,114.3c0-4.4,3.3-7.7,7.7-7.7s7.7,3.3,7.7,7.7-3.3,7.6-7.7,7.6c-4.4,0-7.7-3.2-7.7-7.6ZM240.2,114.3c0,3.6,2.5,5.4,5.1,5.4s5.1-1.9,5.1-5.4-2.5-5.4-5.1-5.4-5.1,1.9-5.1,5.4Z"/>
      <path class="st0" d="M262.9,110.4c-.4-.8-1.1-1.5-2-1.5s-1.8.5-1.8,1.6.7,1.4,2.3,2.1c2.1.9,3.1,1.5,3.6,2.2.6.8.8,1.5.8,2.3,0,3-2.2,4.8-5,4.8s-3.9,0-5.1-3.7l2.2-.9c.3.8,1.1,2.4,2.9,2.4s2.4-1.2,2.4-2.3-1-1.8-2.3-2.4c-1.8-.8-2.9-1.3-3.5-2.1-.6-.7-.7-1.4-.7-2.1,0-2.6,1.8-4.1,4.2-4.1s2.8,0,4,2.6l-2,1.1Z"/>
      <path class="st0" d="M282,120.2l-6.7-13.2h2.9l5.2,10.4,4.7-10.4h2.8l-10.7,22.6h-2.8l4.6-9.4Z"/>
      <path class="st0" d="M301.5,121.5l3.9-24.7,9,19.7,9.1-19.8,3.6,24.7h-2.7l-2.2-16.3-8,17.2-7.9-17.2-2.3,16.3h-2.5Z"/>
      <path class="st0" d="M343.1,107h2.5v14.5h-2.5v-2c-.8,1.1-2.4,2.5-5,2.5-3.7,0-7.1-2.6-7.1-7.7s3.4-7.6,7.1-7.6,4.3,1.5,5,2.4v-2.1ZM333.6,114.3c0,3.1,1.8,5.5,4.8,5.5s4.8-2.6,4.8-5.4-2.6-5.4-4.8-5.4c-2.5,0-4.8,1.7-4.8,5.3Z"/>
      <path class="st0" d="M350.4,107h2.5v1.7c.5-.6,1.8-2,4.2-2s3.3.7,4.2,2c.7,1.1.8,2.3.8,3.9v9h-2.5v-8.9c0-.9-.1-1.9-.7-2.7-.5-.6-1.3-1.1-2.4-1.1s-1.8.2-2.6,1.1c-1,1.2-1.1,2.9-1.1,3.9v7.6h-2.5v-14.5h.1Z"/>
      <path class="st0" d="M369.4,109.3v12.2h-2.5v-12.2h-1.5v-2.3h1.5v-5.3h2.5v5.3h2.5v2.3h-2.5Z"/>
      <path class="st0" d="M387.2,117.8c-.4.8-1.1,1.7-1.8,2.3-1.3,1.2-3,1.8-4.8,1.8-3.5,0-7.2-2.2-7.2-7.6s2.7-7.7,7-7.7,4.6,1.4,5.5,2.7c.9,1.3,1.4,3.5,1.4,5.5h-11.3c0,3,2.1,4.9,4.6,4.9s2.1-.4,3-1.1c.7-.6,1.2-1.3,1.5-2l2.1,1.2ZM384.8,112.7c-.4-2.3-2.1-3.8-4.3-3.8s-3.9,1.6-4.3,3.8h8.6Z"/>
      <path class="st0" d="M391.2,107h2.5v1.7c.5-.6,1.8-2,4.2-2s3.3.7,4.2,2c.7,1.1.8,2.3.8,3.9v9h-2.5v-8.9c0-.9-.1-1.9-.7-2.7-.5-.6-1.3-1.1-2.4-1.1s-1.8.2-2.6,1.1c-1,1.2-1.1,2.9-1.1,3.9v7.6h-2.5v-14.5h.1Z"/>
      <path class="st0" d="M408.9,99.7c1,0,1.8.8,1.8,1.8s-.8,1.8-1.8,1.8-1.8-.8-1.8-1.8.8-1.8,1.8-1.8ZM410.2,107v14.5h-2.5v-14.5h2.5Z"/>
      <path class="st0" d="M415,107h2.5v1.5c.8-1.2,2.1-1.9,3.6-1.9,2.6,0,3.7,1.9,4,2.3,1.4-2.2,3.4-2.3,4.4-2.3,4.3,0,4.7,3.6,4.7,5.7v9.2h-2.5v-8.8c0-1.6-.2-3.8-2.6-3.8s-3.2,2.8-3.2,4.6v8.1h-2.5v-8.6c0-1,0-4-2.6-4s-3.2,3-3.2,4.7v7.9h-2.6v-14.6Z"/>
      <path class="st0" d="M440.2,99.7c1,0,1.8.8,1.8,1.8s-.8,1.8-1.8,1.8-1.8-.8-1.8-1.8c0-1,.8-1.8,1.8-1.8ZM441.5,107v14.5h-2.5v-14.5h2.5Z"/>
      <path class="st0" d="M459.1,117.8c-.4.8-1.1,1.7-1.8,2.3-1.3,1.2-3,1.8-4.8,1.8-3.5,0-7.2-2.2-7.2-7.6s2.7-7.7,7-7.7,4.6,1.4,5.5,2.7c.9,1.3,1.4,3.5,1.4,5.5h-11.3c0,3,2.1,4.9,4.6,4.9s2.1-.4,3-1.1c.7-.6,1.2-1.3,1.5-2l2.1,1.2ZM456.7,112.7c-.4-2.3-2.1-3.8-4.3-3.8s-3.9,1.6-4.3,3.8h8.6Z"/>
      <path class="st0" d="M463.1,107h2.5v1.7c.5-.6,1.8-2,4.2-2s3.3.7,4.2,2c.7,1.1.8,2.3.8,3.9v9h-2.5v-8.9c0-.9-.1-1.9-.7-2.7-.5-.6-1.3-1.1-2.4-1.1s-1.8.2-2.6,1.1c-1,1.2-1.1,2.9-1.1,3.9v7.6h-2.5v-14.5h.1Z"/>
      <path class="st0" d="M482.2,109.3v12.2h-2.5v-12.2h-1.5v-2.3h1.5v-5.3h2.5v5.3h2.5v2.3h-2.5Z"/>
      <path class="st0" d="M486.2,114.3c0-4.4,3.3-7.7,7.7-7.7s7.7,3.3,7.7,7.7-3.3,7.6-7.7,7.6c-4.4,0-7.7-3.2-7.7-7.6ZM488.8,114.3c0,3.6,2.5,5.4,5.1,5.4s5.1-1.9,5.1-5.4-2.5-5.4-5.1-5.4-5.1,1.9-5.1,5.4Z"/>
      <path class="st0" d="M516.8,98.2v23.4h-2.6v-23.4h2.6Z"/>
      <path class="st0" d="M522.2,107h2.5v1.7c.5-.6,1.8-2,4.2-2s3.3.7,4.2,2c.7,1.1.8,2.3.8,3.9v9h-2.5v-8.9c0-.9,0-1.9-.7-2.7-.5-.6-1.3-1.1-2.4-1.1s-1.8.2-2.6,1.1c-1,1.2-1.1,2.9-1.1,3.9v7.6h-2.5v-14.5h0Z"/>
      <path class="st0" d="M549.8,96h2.5v25.6h-2.5v-2c-.8,1.1-2.4,2.5-5,2.5-3.7,0-7.1-2.6-7.1-7.7s3.4-7.6,7.1-7.6,4.3,1.5,5,2.4v-13.2ZM540.4,114.3c0,3.1,1.8,5.5,4.8,5.5s4.8-2.6,4.8-5.4-2.6-5.4-4.8-5.4c-2.5,0-4.8,1.7-4.8,5.3Z"/>
      <path class="st0" d="M559.7,115.5c0,1,0,2.2.7,3.1.4.5,1.2,1.1,2.6,1.1s2.2-.6,2.6-1.1c.7-.9.7-2.1.7-3.1v-8.5h2.5v8.8c0,1.8-.2,3.1-1.3,4.4-1.3,1.4-3,1.8-4.5,1.8s-3.2-.5-4.5-1.8c-1.2-1.3-1.3-2.6-1.3-4.4v-8.8h2.5v8.5Z"/>
      <path class="st0" d="M579.5,110.4c-.4-.8-1.1-1.5-2-1.5s-1.8.5-1.8,1.6.7,1.4,2.3,2.1c2.1.9,3.1,1.5,3.6,2.2.6.8.8,1.5.8,2.3,0,3-2.2,4.8-5,4.8s-3.9,0-5.1-3.7l2.2-.9c.3.8,1.1,2.4,2.9,2.4s2.4-1.2,2.4-2.3-1-1.8-2.3-2.4c-1.8-.8-2.9-1.3-3.5-2.1-.6-.7-.7-1.4-.7-2.1,0-2.6,1.8-4.1,4.2-4.1s2.8,0,4,2.6l-2,1.1Z"/>
      <path class="st0" d="M588.4,109.3v12.2h-2.5v-12.2h-1.5v-2.3h1.5v-5.3h2.5v5.3h2.5v2.3h-2.5Z"/>
      <path class="st0" d="M593.3,107h2.5v1.6c.2-.4,1.3-1.9,3.3-1.9s1.6.3,2.2.6l-1.2,2.3c-.6-.4-1.1-.5-1.5-.5-1,0-1.6.4-2,.9-.4.6-.8,1.5-.8,3.9v7.7h-2.5v-14.6Z"/>
      <path class="st0" d="M604.9,99.7c1,0,1.8.8,1.8,1.8s-.8,1.8-1.8,1.8-1.8-.8-1.8-1.8c0-1,.8-1.8,1.8-1.8ZM606.2,107v14.5h-2.5v-14.5h2.5Z"/>
      <path class="st0" d="M622.1,107h2.5v14.5h-2.5v-2c-.8,1.1-2.4,2.5-5,2.5-3.7,0-7.1-2.6-7.1-7.7s3.4-7.6,7.1-7.6,4.3,1.5,5,2.4v-2.1ZM612.6,114.3c0,3.1,1.8,5.5,4.8,5.5s4.8-2.6,4.8-5.4-2.6-5.4-4.8-5.4c-2.5,0-4.8,1.7-4.8,5.3Z"/>
      <path class="st0" d="M631.9,96v25.6h-2.5v-25.6h2.5Z"/>
      <path class="st0" d="M644.2,109.9c0-7,5.4-12.1,12.2-12.1s12.2,5.1,12.2,12.1-5.4,12.1-12.2,12.1-12.2-5.2-12.2-12.1ZM646.9,109.9c0,5.4,4.2,9.6,9.5,9.6s9.5-4.3,9.5-9.6-4.2-9.6-9.5-9.6c-5.3-.1-9.5,4.2-9.5,9.6Z"/>
      <path class="st0" d="M677,98.2c1.6,0,3.9,0,5.7,1.3,1.4.9,2.6,2.7,2.6,5.2,0,3.6-2.3,6.2-5.9,6.4l7.4,10.4h-3.2l-7.1-10.2h-.7v10.2h-2.6v-23.3h3.8ZM675.9,109h1.6c3.2,0,5.2-1.5,5.2-4.3s-.4-2.6-1.9-3.4c-1.1-.6-2.2-.7-3.4-.7h-1.6v8.4h.1Z"/>
      <path class="st0" d="M693.1,119.1h12.4v2.5h-16.8l12.8-20.9h-11.1v-2.5h15.5l-12.8,20.9Z"/>
      <path class="st0" d="M722.6,115h-10l-2.8,6.6h-2.9l10.8-24.6,10.5,24.5h-2.9l-2.7-6.5ZM721.6,112.5l-3.9-9.4-4,9.4h7.9Z"/>
    </g>
    <path class="st0" d="M311.8,4.9h18.9v82.2h-18.9V4.9Z"/>
    <polygon class="st0" points="636.2 87.1 657.1 4.9 702 4.9 722.9 87.1 704.4 87.1 687.7 20.9 671.4 20.9 654.7 87.1 636.2 87.1"/>
  </g>
</svg>